<svg xmlns="http://www.w3.org/2000/svg" viewBox="0 0 128 128" width="128" height="128">
  <!-- Body -->
  <path d="M 64 40 C 84 40 92 56 92 74 C 92 92 80 110 64 110 C 48 110 36 92 36 74 C 36 56 44 40 64 40 Z"
        fill="#ff4d6d" stroke="#0a0d0e" stroke-width="4" stroke-linejoin="round"/>
  <!-- Highlight -->
  <ellipse cx="50" cy="60" rx="8" ry="6" fill="#ff7b96" opacity="0.85"/>
  <!-- Seeds -->
  <ellipse cx="52" cy="76" rx="1.6" ry="2.4" fill="#fff" stroke="#0a0d0e" stroke-width="0.6"/>
  <ellipse cx="74" cy="74" rx="1.6" ry="2.4" fill="#fff" stroke="#0a0d0e" stroke-width="0.6"/>
  <ellipse cx="62" cy="90" rx="1.6" ry="2.4" fill="#fff" stroke="#0a0d0e" stroke-width="0.6"/>
  <ellipse cx="78" cy="92" rx="1.6" ry="2.4" fill="#fff" stroke="#0a0d0e" stroke-width="0.6"/>
  <ellipse cx="46" cy="92" rx="1.6" ry="2.4" fill="#fff" stroke="#0a0d0e" stroke-width="0.6"/>
  <!-- Leaf -->
  <path d="M 44 42 L 56 32 L 62 42 L 64 30 L 68 42 L 76 32 L 84 42 Z"
        fill="#2d7a2a" stroke="#0a0d0e" stroke-width="3" stroke-linejoin="round"/>
</svg>
