<svg xmlns="http://www.w3.org/2000/svg" viewBox="0 0 128 128" width="128" height="128">
  <!-- Cone -->
  <path d="M 38 56 L 90 56 L 64 116 Z"
        fill="#d4a460" stroke="#0a0d0e" stroke-width="4" stroke-linejoin="round"/>
  <path d="M 48 70 L 80 70 M 54 84 L 74 84 M 60 98 L 68 98"
        stroke="#8b5a2b" stroke-width="2" stroke-linecap="round" fill="none"/>
  <!-- Scoop drip -->
  <path d="M 38 56 Q 44 64 50 56 Q 56 66 62 56 Q 68 64 74 56 Q 80 66 86 56 Q 90 60 90 56"
        fill="#ff8ec6" stroke="#0a0d0e" stroke-width="4" stroke-linejoin="round"/>
  <!-- Scoop dome -->
  <circle cx="64" cy="38" r="26" fill="#ff8ec6" stroke="#0a0d0e" stroke-width="4"/>
  <!-- Highlight -->
  <ellipse cx="54" cy="28" rx="9" ry="6" fill="#ffb6dc" opacity="0.85"/>
  <!-- Eyes -->
  <circle cx="56" cy="38" r="6" fill="#fff" stroke="#0a0d0e" stroke-width="2"/>
  <circle cx="74" cy="38" r="6" fill="#fff" stroke="#0a0d0e" stroke-width="2"/>
  <circle cx="56" cy="38" r="2.6" fill="#0a0d0e"/>
  <circle cx="74" cy="38" r="2.6" fill="#0a0d0e"/>
  <!-- Tiny smile -->
  <path d="M 56 50 Q 64 55 72 50" stroke="#0a0d0e" stroke-width="2.4" fill="none" stroke-linecap="round"/>
</svg>
